# xmcd
#
# Track frame offsets: 
#        150
#        23645
#        56450
#        72540
#        96507
#        139657
#        163307
#        201145
#        239630
#        262852
#        286689
#
# Disc length: 4353 seconds
#
# Revision: 1
# Processed by: cddbd v1.5.2PL0 Copyright (c) Steve Scherf et al.
# Submitted via: ExactAudioCopy v0.99pb4
#
DISCID=a010ff0b
DTITLE=Various Artist - Music For Relaxation And Meditation
DYEAR=1900
DGENRE=New Age
TTITLE0=Yaskim - Valley Of Doves
TTITLE1=Sharin - Spiritual Journey
TTITLE2=Maradisha - Universe
TTITLE3=Yaskim - Falquemont
TTITLE4=Sharin - Musical Touch
TTITLE5=Maradisha - Song
TTITLE6=Yaskim - Twilight
TTITLE7=Sharin - Musical Mission
TTITLE8=Maradisha - Thank Youniverse
TTITLE9=Yaskim - Gingerry
TTITLE10=Sharin - Early Morning
EXTD=
EXTT0=
EXTT1=
EXTT2=
EXTT3=
EXTT4=
EXTT5=
EXTT6=
EXTT7=
EXTT8=
EXTT9=
EXTT10=
PLAYORDER=
